REM MD5 7ce4648ea005ac2efaa8de06fb88502b
FILE "Euro Demo 24 (Europe).bin" BINARY
  TRACK 01 MODE2/2352
    INDEX 01 00:00:00
  TRACK 02 AUDIO
    INDEX 00 12:57:67
    INDEX 01 12:59:67
  TRACK 03 AUDIO
    INDEX 00 18:33:65
    INDEX 01 18:35:65
  TRACK 04 AUDIO
    INDEX 00 23:31:41
    INDEX 01 23:33:41
  TRACK 05 AUDIO
    INDEX 00 24:45:52
    INDEX 01 24:47:52
REM LEADOUT 28:05:07
